<mxfile host="app.diagrams.net" modified="2023-07-16T14:30:22.434Z" agent="Mozilla/5.0 (Windows NT 10.0; Win64; x64) AppleWebKit/537.36 (KHTML, like Gecko) Chrome/114.0.0.0 Safari/537.36" etag="iTxvdZJZtEqJ9j5kThLO" version="21.6.2" type="github">
  <diagram name="Page-1" id="1aIex8ccTAoRGTjpidiL">
    <mxGraphModel dx="1900" dy="573" grid="1" gridSize="10" guides="1" tooltips="1" connect="1" arrows="1" fold="1" page="1" pageScale="1" pageWidth="850" pageHeight="1100" math="0" shadow="0">
      <root>
        <mxCell id="0" />
        <mxCell id="1" parent="0" />
        <mxCell id="xtMuz63zyeB6EGfJgtIS-1" value="Register as admin" style="rounded=1;whiteSpace=wrap;html=1;fontSize=16;fontStyle=1" parent="1" vertex="1">
          <mxGeometry x="240" y="120" width="120" height="50" as="geometry" />
        </mxCell>
        <mxCell id="74rRM-MQZsqJR7cLCbWe-7" style="edgeStyle=orthogonalEdgeStyle;rounded=0;orthogonalLoop=1;jettySize=auto;html=1;entryX=0.5;entryY=0;entryDx=0;entryDy=0;" edge="1" parent="1" source="xtMuz63zyeB6EGfJgtIS-2" target="xtMuz63zyeB6EGfJgtIS-4">
          <mxGeometry relative="1" as="geometry" />
        </mxCell>
        <mxCell id="xtMuz63zyeB6EGfJgtIS-2" value="Login" style="rounded=1;whiteSpace=wrap;html=1;fontSize=16;fontStyle=1" parent="1" vertex="1">
          <mxGeometry x="750" y="120" width="130" height="40" as="geometry" />
        </mxCell>
        <mxCell id="74rRM-MQZsqJR7cLCbWe-5" style="edgeStyle=orthogonalEdgeStyle;rounded=0;orthogonalLoop=1;jettySize=auto;html=1;entryX=0;entryY=0.5;entryDx=0;entryDy=0;" edge="1" parent="1" source="xtMuz63zyeB6EGfJgtIS-3" target="xtMuz63zyeB6EGfJgtIS-2">
          <mxGeometry relative="1" as="geometry" />
        </mxCell>
        <mxCell id="74rRM-MQZsqJR7cLCbWe-6" value="&lt;font style=&quot;font-size: 16px;&quot;&gt;&lt;b&gt;Yes&lt;/b&gt;&lt;/font&gt;" style="edgeLabel;html=1;align=center;verticalAlign=middle;resizable=0;points=[];" vertex="1" connectable="0" parent="74rRM-MQZsqJR7cLCbWe-5">
          <mxGeometry x="-0.025" relative="1" as="geometry">
            <mxPoint as="offset" />
          </mxGeometry>
        </mxCell>
        <mxCell id="74rRM-MQZsqJR7cLCbWe-10" style="edgeStyle=orthogonalEdgeStyle;rounded=0;orthogonalLoop=1;jettySize=auto;html=1;" edge="1" parent="1" source="xtMuz63zyeB6EGfJgtIS-3">
          <mxGeometry relative="1" as="geometry">
            <mxPoint x="360" y="140" as="targetPoint" />
          </mxGeometry>
        </mxCell>
        <mxCell id="74rRM-MQZsqJR7cLCbWe-11" value="&lt;font style=&quot;font-size: 16px;&quot;&gt;&lt;b&gt;NO&lt;/b&gt;&lt;/font&gt;" style="edgeLabel;html=1;align=center;verticalAlign=middle;resizable=0;points=[];" vertex="1" connectable="0" parent="74rRM-MQZsqJR7cLCbWe-10">
          <mxGeometry x="-0.0299" relative="1" as="geometry">
            <mxPoint as="offset" />
          </mxGeometry>
        </mxCell>
        <mxCell id="xtMuz63zyeB6EGfJgtIS-3" value="Has Account?" style="rhombus;whiteSpace=wrap;html=1;fontSize=16;fontStyle=1" parent="1" vertex="1">
          <mxGeometry x="510" y="110" width="160" height="60" as="geometry" />
        </mxCell>
        <mxCell id="74rRM-MQZsqJR7cLCbWe-8" style="edgeStyle=orthogonalEdgeStyle;rounded=0;orthogonalLoop=1;jettySize=auto;html=1;exitX=0.5;exitY=1;exitDx=0;exitDy=0;entryX=0.5;entryY=0;entryDx=0;entryDy=0;" edge="1" parent="1" source="xtMuz63zyeB6EGfJgtIS-4" target="xtMuz63zyeB6EGfJgtIS-5">
          <mxGeometry relative="1" as="geometry" />
        </mxCell>
        <mxCell id="xtMuz63zyeB6EGfJgtIS-4" value="Authenticate" style="rounded=1;whiteSpace=wrap;html=1;fontSize=16;fontStyle=1" parent="1" vertex="1">
          <mxGeometry x="750" y="200" width="130" height="40" as="geometry" />
        </mxCell>
        <mxCell id="74rRM-MQZsqJR7cLCbWe-9" style="edgeStyle=orthogonalEdgeStyle;rounded=0;orthogonalLoop=1;jettySize=auto;html=1;exitX=0.5;exitY=1;exitDx=0;exitDy=0;entryX=0.785;entryY=0.31;entryDx=0;entryDy=0;entryPerimeter=0;" edge="1" parent="1" source="xtMuz63zyeB6EGfJgtIS-5" target="xtMuz63zyeB6EGfJgtIS-29">
          <mxGeometry relative="1" as="geometry" />
        </mxCell>
        <mxCell id="74rRM-MQZsqJR7cLCbWe-14" value="&lt;font style=&quot;font-size: 16px;&quot;&gt;&lt;b&gt;Yes&lt;/b&gt;&lt;/font&gt;" style="edgeLabel;html=1;align=center;verticalAlign=middle;resizable=0;points=[];" vertex="1" connectable="0" parent="74rRM-MQZsqJR7cLCbWe-9">
          <mxGeometry x="-0.27" y="1" relative="1" as="geometry">
            <mxPoint as="offset" />
          </mxGeometry>
        </mxCell>
        <mxCell id="74rRM-MQZsqJR7cLCbWe-12" style="edgeStyle=orthogonalEdgeStyle;rounded=0;orthogonalLoop=1;jettySize=auto;html=1;entryX=1;entryY=0.5;entryDx=0;entryDy=0;" edge="1" parent="1" source="xtMuz63zyeB6EGfJgtIS-5" target="xtMuz63zyeB6EGfJgtIS-2">
          <mxGeometry relative="1" as="geometry">
            <Array as="points">
              <mxPoint x="950" y="310" />
              <mxPoint x="950" y="140" />
            </Array>
          </mxGeometry>
        </mxCell>
        <mxCell id="74rRM-MQZsqJR7cLCbWe-13" value="&lt;font style=&quot;font-size: 16px;&quot;&gt;&lt;b&gt;Not Valid&lt;/b&gt;&lt;/font&gt;" style="edgeLabel;html=1;align=center;verticalAlign=middle;resizable=0;points=[];" vertex="1" connectable="0" parent="74rRM-MQZsqJR7cLCbWe-12">
          <mxGeometry x="0.0263" y="6" relative="1" as="geometry">
            <mxPoint as="offset" />
          </mxGeometry>
        </mxCell>
        <mxCell id="xtMuz63zyeB6EGfJgtIS-5" value="Is Valid ?" style="rhombus;whiteSpace=wrap;html=1;fontSize=16;fontStyle=1" parent="1" vertex="1">
          <mxGeometry x="760" y="280" width="110" height="60" as="geometry" />
        </mxCell>
        <mxCell id="xtMuz63zyeB6EGfJgtIS-6" value="" style="line;strokeWidth=1;fillColor=none;align=left;verticalAlign=middle;spacingTop=-1;spacingLeft=3;spacingRight=3;rotatable=0;labelPosition=right;points=[];portConstraint=eastwest;strokeColor=inherit;" parent="1" vertex="1">
          <mxGeometry x="80" y="390" width="690" as="geometry" />
        </mxCell>
        <mxCell id="74rRM-MQZsqJR7cLCbWe-51" style="edgeStyle=orthogonalEdgeStyle;rounded=0;orthogonalLoop=1;jettySize=auto;html=1;entryX=0.388;entryY=-0.105;entryDx=0;entryDy=0;entryPerimeter=0;" edge="1" parent="1" source="xtMuz63zyeB6EGfJgtIS-7" target="74rRM-MQZsqJR7cLCbWe-50">
          <mxGeometry relative="1" as="geometry">
            <Array as="points">
              <mxPoint x="230" y="830" />
              <mxPoint x="230" y="830" />
            </Array>
          </mxGeometry>
        </mxCell>
        <mxCell id="xtMuz63zyeB6EGfJgtIS-7" value="" style="line;strokeWidth=5;fillColor=none;align=left;verticalAlign=middle;spacingTop=-1;spacingLeft=3;spacingRight=3;rotatable=0;labelPosition=right;points=[];portConstraint=eastwest;strokeColor=inherit;" parent="1" vertex="1">
          <mxGeometry x="-130" y="800" width="1230" height="10" as="geometry" />
        </mxCell>
        <mxCell id="74rRM-MQZsqJR7cLCbWe-26" style="edgeStyle=orthogonalEdgeStyle;rounded=0;orthogonalLoop=1;jettySize=auto;html=1;" edge="1" parent="1" source="xtMuz63zyeB6EGfJgtIS-8" target="xtMuz63zyeB6EGfJgtIS-7">
          <mxGeometry relative="1" as="geometry">
            <Array as="points">
              <mxPoint x="-5" y="500" />
              <mxPoint x="-270" y="500" />
              <mxPoint x="-270" y="750" />
              <mxPoint x="-70" y="750" />
            </Array>
          </mxGeometry>
        </mxCell>
        <mxCell id="74rRM-MQZsqJR7cLCbWe-27" style="edgeStyle=orthogonalEdgeStyle;rounded=0;orthogonalLoop=1;jettySize=auto;html=1;" edge="1" parent="1" source="xtMuz63zyeB6EGfJgtIS-8" target="xtMuz63zyeB6EGfJgtIS-20">
          <mxGeometry relative="1" as="geometry">
            <Array as="points">
              <mxPoint x="-5" y="500" />
              <mxPoint x="-165" y="500" />
            </Array>
          </mxGeometry>
        </mxCell>
        <mxCell id="74rRM-MQZsqJR7cLCbWe-28" style="edgeStyle=orthogonalEdgeStyle;rounded=0;orthogonalLoop=1;jettySize=auto;html=1;entryX=0.5;entryY=0;entryDx=0;entryDy=0;" edge="1" parent="1" source="xtMuz63zyeB6EGfJgtIS-8" target="xtMuz63zyeB6EGfJgtIS-16">
          <mxGeometry relative="1" as="geometry">
            <Array as="points">
              <mxPoint x="-5" y="500" />
              <mxPoint x="-55" y="500" />
            </Array>
          </mxGeometry>
        </mxCell>
        <mxCell id="74rRM-MQZsqJR7cLCbWe-29" style="edgeStyle=orthogonalEdgeStyle;rounded=0;orthogonalLoop=1;jettySize=auto;html=1;entryX=0.5;entryY=0;entryDx=0;entryDy=0;" edge="1" parent="1" source="xtMuz63zyeB6EGfJgtIS-8" target="xtMuz63zyeB6EGfJgtIS-21">
          <mxGeometry relative="1" as="geometry">
            <Array as="points">
              <mxPoint x="-5" y="500" />
              <mxPoint x="55" y="500" />
            </Array>
          </mxGeometry>
        </mxCell>
        <mxCell id="74rRM-MQZsqJR7cLCbWe-30" style="edgeStyle=orthogonalEdgeStyle;rounded=0;orthogonalLoop=1;jettySize=auto;html=1;entryX=0.5;entryY=0;entryDx=0;entryDy=0;" edge="1" parent="1" source="xtMuz63zyeB6EGfJgtIS-8" target="xtMuz63zyeB6EGfJgtIS-22">
          <mxGeometry relative="1" as="geometry">
            <Array as="points">
              <mxPoint x="-5" y="500" />
              <mxPoint x="165" y="500" />
            </Array>
          </mxGeometry>
        </mxCell>
        <mxCell id="xtMuz63zyeB6EGfJgtIS-8" value="Handle Product" style="rounded=1;whiteSpace=wrap;html=1;fontSize=16;fontStyle=1" parent="1" vertex="1">
          <mxGeometry x="-70" y="440" width="130" height="40" as="geometry" />
        </mxCell>
        <mxCell id="74rRM-MQZsqJR7cLCbWe-37" style="edgeStyle=orthogonalEdgeStyle;rounded=0;orthogonalLoop=1;jettySize=auto;html=1;" edge="1" parent="1" source="xtMuz63zyeB6EGfJgtIS-9">
          <mxGeometry relative="1" as="geometry">
            <mxPoint x="224.79998779296875" y="801" as="targetPoint" />
          </mxGeometry>
        </mxCell>
        <mxCell id="xtMuz63zyeB6EGfJgtIS-9" value="Revenue" style="rounded=1;whiteSpace=wrap;html=1;fontSize=16;fontStyle=1" parent="1" vertex="1">
          <mxGeometry x="160" y="440" width="130" height="40" as="geometry" />
        </mxCell>
        <mxCell id="74rRM-MQZsqJR7cLCbWe-38" style="edgeStyle=orthogonalEdgeStyle;rounded=0;orthogonalLoop=1;jettySize=auto;html=1;" edge="1" parent="1" source="xtMuz63zyeB6EGfJgtIS-10">
          <mxGeometry relative="1" as="geometry">
            <mxPoint x="303.20001220703125" y="799.4000244140625" as="targetPoint" />
          </mxGeometry>
        </mxCell>
        <mxCell id="74rRM-MQZsqJR7cLCbWe-39" style="edgeStyle=orthogonalEdgeStyle;rounded=0;orthogonalLoop=1;jettySize=auto;html=1;entryX=0.5;entryY=0;entryDx=0;entryDy=0;" edge="1" parent="1" source="xtMuz63zyeB6EGfJgtIS-10" target="xtMuz63zyeB6EGfJgtIS-23">
          <mxGeometry relative="1" as="geometry" />
        </mxCell>
        <mxCell id="xtMuz63zyeB6EGfJgtIS-10" value="Check Order" style="rounded=1;whiteSpace=wrap;html=1;fontSize=16;fontStyle=1" parent="1" vertex="1">
          <mxGeometry x="400" y="440" width="130" height="40" as="geometry" />
        </mxCell>
        <mxCell id="74rRM-MQZsqJR7cLCbWe-45" style="edgeStyle=orthogonalEdgeStyle;rounded=0;orthogonalLoop=1;jettySize=auto;html=1;entryX=0.5;entryY=0;entryDx=0;entryDy=0;" edge="1" parent="1" source="xtMuz63zyeB6EGfJgtIS-11" target="xtMuz63zyeB6EGfJgtIS-26">
          <mxGeometry relative="1" as="geometry" />
        </mxCell>
        <mxCell id="74rRM-MQZsqJR7cLCbWe-46" style="edgeStyle=orthogonalEdgeStyle;rounded=0;orthogonalLoop=1;jettySize=auto;html=1;entryX=0.391;entryY=-0.023;entryDx=0;entryDy=0;entryPerimeter=0;" edge="1" parent="1" source="xtMuz63zyeB6EGfJgtIS-11" target="xtMuz63zyeB6EGfJgtIS-28">
          <mxGeometry relative="1" as="geometry" />
        </mxCell>
        <mxCell id="74rRM-MQZsqJR7cLCbWe-47" style="edgeStyle=orthogonalEdgeStyle;rounded=0;orthogonalLoop=1;jettySize=auto;html=1;" edge="1" parent="1" source="xtMuz63zyeB6EGfJgtIS-11">
          <mxGeometry relative="1" as="geometry">
            <mxPoint x="606.4000244140625" y="798.6000366210938" as="targetPoint" />
          </mxGeometry>
        </mxCell>
        <mxCell id="xtMuz63zyeB6EGfJgtIS-11" value="Costs" style="rounded=1;whiteSpace=wrap;html=1;fontSize=16;fontStyle=1" parent="1" vertex="1">
          <mxGeometry x="630" y="440" width="130" height="40" as="geometry" />
        </mxCell>
        <mxCell id="74rRM-MQZsqJR7cLCbWe-48" style="edgeStyle=orthogonalEdgeStyle;rounded=0;orthogonalLoop=1;jettySize=auto;html=1;" edge="1" parent="1" source="xtMuz63zyeB6EGfJgtIS-12">
          <mxGeometry relative="1" as="geometry">
            <mxPoint x="864.0000610351562" y="802.6000366210938" as="targetPoint" />
          </mxGeometry>
        </mxCell>
        <mxCell id="xtMuz63zyeB6EGfJgtIS-12" value="Hire Deliveryman" style="rounded=1;whiteSpace=wrap;html=1;fontSize=16;fontStyle=1" parent="1" vertex="1">
          <mxGeometry x="800" y="440" width="130" height="40" as="geometry" />
        </mxCell>
        <mxCell id="74rRM-MQZsqJR7cLCbWe-49" style="edgeStyle=orthogonalEdgeStyle;rounded=0;orthogonalLoop=1;jettySize=auto;html=1;" edge="1" parent="1" source="xtMuz63zyeB6EGfJgtIS-13">
          <mxGeometry relative="1" as="geometry">
            <mxPoint x="1014.4000854492188" y="800.2000122070312" as="targetPoint" />
          </mxGeometry>
        </mxCell>
        <mxCell id="xtMuz63zyeB6EGfJgtIS-13" value="Register new Staff" style="rounded=1;whiteSpace=wrap;html=1;fontSize=16;fontStyle=1" parent="1" vertex="1">
          <mxGeometry x="950" y="440" width="130" height="40" as="geometry" />
        </mxCell>
        <mxCell id="74rRM-MQZsqJR7cLCbWe-25" style="edgeStyle=orthogonalEdgeStyle;rounded=0;orthogonalLoop=1;jettySize=auto;html=1;" edge="1" parent="1" source="xtMuz63zyeB6EGfJgtIS-15" target="xtMuz63zyeB6EGfJgtIS-7">
          <mxGeometry relative="1" as="geometry">
            <mxPoint x="-80" y="780" as="targetPoint" />
            <Array as="points">
              <mxPoint x="-290" y="460" />
              <mxPoint x="-290" y="770" />
              <mxPoint x="-90" y="770" />
            </Array>
          </mxGeometry>
        </mxCell>
        <mxCell id="xtMuz63zyeB6EGfJgtIS-15" value="Dashboard" style="rounded=1;whiteSpace=wrap;html=1;fontSize=16;fontStyle=1" parent="1" vertex="1">
          <mxGeometry x="-280" y="440" width="130" height="40" as="geometry" />
        </mxCell>
        <mxCell id="74rRM-MQZsqJR7cLCbWe-32" style="edgeStyle=orthogonalEdgeStyle;rounded=0;orthogonalLoop=1;jettySize=auto;html=1;entryX=0.095;entryY=0.1;entryDx=0;entryDy=0;entryPerimeter=0;" edge="1" parent="1" source="xtMuz63zyeB6EGfJgtIS-16" target="xtMuz63zyeB6EGfJgtIS-7">
          <mxGeometry relative="1" as="geometry">
            <Array as="points">
              <mxPoint x="-55" y="720" />
              <mxPoint x="-13" y="720" />
            </Array>
          </mxGeometry>
        </mxCell>
        <mxCell id="xtMuz63zyeB6EGfJgtIS-16" value="Update" style="rounded=1;whiteSpace=wrap;html=1;fontSize=16;fontStyle=1" parent="1" vertex="1">
          <mxGeometry x="-100" y="560" width="90" height="30" as="geometry" />
        </mxCell>
        <mxCell id="74rRM-MQZsqJR7cLCbWe-31" style="edgeStyle=orthogonalEdgeStyle;rounded=0;orthogonalLoop=1;jettySize=auto;html=1;entryX=0.073;entryY=0;entryDx=0;entryDy=0;entryPerimeter=0;" edge="1" parent="1" source="xtMuz63zyeB6EGfJgtIS-20" target="xtMuz63zyeB6EGfJgtIS-7">
          <mxGeometry relative="1" as="geometry">
            <Array as="points">
              <mxPoint x="-165" y="740" />
              <mxPoint x="-40" y="740" />
            </Array>
          </mxGeometry>
        </mxCell>
        <mxCell id="xtMuz63zyeB6EGfJgtIS-20" value="Insert" style="rounded=1;whiteSpace=wrap;html=1;fontSize=16;fontStyle=1" parent="1" vertex="1">
          <mxGeometry x="-210" y="560" width="90" height="30" as="geometry" />
        </mxCell>
        <mxCell id="74rRM-MQZsqJR7cLCbWe-34" style="edgeStyle=orthogonalEdgeStyle;rounded=0;orthogonalLoop=1;jettySize=auto;html=1;" edge="1" parent="1" source="xtMuz63zyeB6EGfJgtIS-21">
          <mxGeometry relative="1" as="geometry">
            <mxPoint x="53.5999755859375" y="803.4000244140625" as="targetPoint" />
          </mxGeometry>
        </mxCell>
        <mxCell id="xtMuz63zyeB6EGfJgtIS-21" value="Delete" style="rounded=1;whiteSpace=wrap;html=1;fontSize=16;fontStyle=1" parent="1" vertex="1">
          <mxGeometry x="10" y="560" width="90" height="30" as="geometry" />
        </mxCell>
        <mxCell id="74rRM-MQZsqJR7cLCbWe-36" style="edgeStyle=orthogonalEdgeStyle;rounded=0;orthogonalLoop=1;jettySize=auto;html=1;" edge="1" parent="1" source="xtMuz63zyeB6EGfJgtIS-22">
          <mxGeometry relative="1" as="geometry">
            <mxPoint x="164.79998779296875" y="800.2000122070312" as="targetPoint" />
          </mxGeometry>
        </mxCell>
        <mxCell id="xtMuz63zyeB6EGfJgtIS-22" value="Read" style="rounded=1;whiteSpace=wrap;html=1;fontSize=16;fontStyle=1" parent="1" vertex="1">
          <mxGeometry x="120" y="560" width="90" height="30" as="geometry" />
        </mxCell>
        <mxCell id="74rRM-MQZsqJR7cLCbWe-40" style="edgeStyle=orthogonalEdgeStyle;rounded=0;orthogonalLoop=1;jettySize=auto;html=1;" edge="1" parent="1" source="xtMuz63zyeB6EGfJgtIS-23">
          <mxGeometry relative="1" as="geometry">
            <mxPoint x="316.800048828125" y="799.4000244140625" as="targetPoint" />
          </mxGeometry>
        </mxCell>
        <mxCell id="74rRM-MQZsqJR7cLCbWe-41" style="edgeStyle=orthogonalEdgeStyle;rounded=0;orthogonalLoop=1;jettySize=auto;html=1;entryX=0.408;entryY=0.017;entryDx=0;entryDy=0;entryPerimeter=0;" edge="1" parent="1" source="xtMuz63zyeB6EGfJgtIS-23" target="xtMuz63zyeB6EGfJgtIS-24">
          <mxGeometry relative="1" as="geometry" />
        </mxCell>
        <mxCell id="74rRM-MQZsqJR7cLCbWe-42" style="edgeStyle=orthogonalEdgeStyle;rounded=0;orthogonalLoop=1;jettySize=auto;html=1;" edge="1" parent="1" source="xtMuz63zyeB6EGfJgtIS-23">
          <mxGeometry relative="1" as="geometry">
            <mxPoint x="554.4000244140625" y="621.8000183105469" as="targetPoint" />
            <Array as="points">
              <mxPoint x="465" y="610" />
              <mxPoint x="554" y="610" />
            </Array>
          </mxGeometry>
        </mxCell>
        <mxCell id="xtMuz63zyeB6EGfJgtIS-23" value="Payment Verify" style="rounded=1;whiteSpace=wrap;html=1;fontSize=16;fontStyle=1" parent="1" vertex="1">
          <mxGeometry x="415" y="520" width="100" height="60" as="geometry" />
        </mxCell>
        <mxCell id="74rRM-MQZsqJR7cLCbWe-43" style="edgeStyle=orthogonalEdgeStyle;rounded=0;orthogonalLoop=1;jettySize=auto;html=1;" edge="1" parent="1" source="xtMuz63zyeB6EGfJgtIS-24">
          <mxGeometry relative="1" as="geometry">
            <mxPoint x="390.4000244140625" y="806.6000366210938" as="targetPoint" />
          </mxGeometry>
        </mxCell>
        <mxCell id="xtMuz63zyeB6EGfJgtIS-24" value="Order Details" style="rounded=1;whiteSpace=wrap;html=1;fontSize=16;fontStyle=1" parent="1" vertex="1">
          <mxGeometry x="340" y="640" width="100" height="60" as="geometry" />
        </mxCell>
        <mxCell id="74rRM-MQZsqJR7cLCbWe-44" style="edgeStyle=orthogonalEdgeStyle;rounded=0;orthogonalLoop=1;jettySize=auto;html=1;" edge="1" parent="1" source="xtMuz63zyeB6EGfJgtIS-25">
          <mxGeometry relative="1" as="geometry">
            <mxPoint x="528.7999877929688" y="801" as="targetPoint" />
          </mxGeometry>
        </mxCell>
        <mxCell id="xtMuz63zyeB6EGfJgtIS-25" value="Hire delivery person or Choose Service" style="rounded=1;whiteSpace=wrap;html=1;fontSize=16;fontStyle=1" parent="1" vertex="1">
          <mxGeometry x="470" y="620" width="120" height="100" as="geometry" />
        </mxCell>
        <mxCell id="xtMuz63zyeB6EGfJgtIS-26" value="Check Daily Costs" style="rounded=1;whiteSpace=wrap;html=1;fontSize=16;fontStyle=1" parent="1" vertex="1">
          <mxGeometry x="620" y="600" width="110" height="70" as="geometry" />
        </mxCell>
        <mxCell id="xtMuz63zyeB6EGfJgtIS-27" style="edgeStyle=orthogonalEdgeStyle;rounded=0;orthogonalLoop=1;jettySize=auto;html=1;exitX=0.5;exitY=1;exitDx=0;exitDy=0;fontSize=16;fontStyle=1" parent="1" source="xtMuz63zyeB6EGfJgtIS-23" target="xtMuz63zyeB6EGfJgtIS-23" edge="1">
          <mxGeometry relative="1" as="geometry" />
        </mxCell>
        <mxCell id="xtMuz63zyeB6EGfJgtIS-28" value="Mapping Revenue" style="rounded=1;whiteSpace=wrap;html=1;fontSize=16;fontStyle=1" parent="1" vertex="1">
          <mxGeometry x="760" y="600" width="90" height="60" as="geometry" />
        </mxCell>
        <mxCell id="74rRM-MQZsqJR7cLCbWe-18" style="edgeStyle=orthogonalEdgeStyle;rounded=0;orthogonalLoop=1;jettySize=auto;html=1;entryX=0.5;entryY=0;entryDx=0;entryDy=0;" edge="1" parent="1" source="xtMuz63zyeB6EGfJgtIS-29" target="xtMuz63zyeB6EGfJgtIS-15">
          <mxGeometry relative="1" as="geometry">
            <Array as="points">
              <mxPoint x="-100" y="410" />
              <mxPoint x="-215" y="410" />
            </Array>
          </mxGeometry>
        </mxCell>
        <mxCell id="74rRM-MQZsqJR7cLCbWe-19" style="edgeStyle=orthogonalEdgeStyle;rounded=0;orthogonalLoop=1;jettySize=auto;html=1;entryX=0.594;entryY=-0.055;entryDx=0;entryDy=0;entryPerimeter=0;" edge="1" parent="1" source="xtMuz63zyeB6EGfJgtIS-29" target="xtMuz63zyeB6EGfJgtIS-8">
          <mxGeometry relative="1" as="geometry">
            <Array as="points">
              <mxPoint x="7" y="390" />
              <mxPoint x="7" y="390" />
            </Array>
          </mxGeometry>
        </mxCell>
        <mxCell id="74rRM-MQZsqJR7cLCbWe-20" style="edgeStyle=orthogonalEdgeStyle;rounded=0;orthogonalLoop=1;jettySize=auto;html=1;entryX=0.5;entryY=0;entryDx=0;entryDy=0;exitX=0.305;exitY=0.38;exitDx=0;exitDy=0;exitPerimeter=0;" edge="1" parent="1" source="xtMuz63zyeB6EGfJgtIS-29" target="xtMuz63zyeB6EGfJgtIS-9">
          <mxGeometry relative="1" as="geometry">
            <Array as="points">
              <mxPoint x="225" y="390" />
              <mxPoint x="225" y="390" />
            </Array>
          </mxGeometry>
        </mxCell>
        <mxCell id="74rRM-MQZsqJR7cLCbWe-21" style="edgeStyle=orthogonalEdgeStyle;rounded=0;orthogonalLoop=1;jettySize=auto;html=1;entryX=0.5;entryY=0;entryDx=0;entryDy=0;" edge="1" parent="1" source="xtMuz63zyeB6EGfJgtIS-29" target="xtMuz63zyeB6EGfJgtIS-10">
          <mxGeometry relative="1" as="geometry">
            <Array as="points">
              <mxPoint x="465" y="390" />
              <mxPoint x="465" y="390" />
            </Array>
          </mxGeometry>
        </mxCell>
        <mxCell id="74rRM-MQZsqJR7cLCbWe-22" style="edgeStyle=orthogonalEdgeStyle;rounded=0;orthogonalLoop=1;jettySize=auto;html=1;entryX=0.5;entryY=0;entryDx=0;entryDy=0;" edge="1" parent="1" source="xtMuz63zyeB6EGfJgtIS-29" target="xtMuz63zyeB6EGfJgtIS-11">
          <mxGeometry relative="1" as="geometry">
            <Array as="points">
              <mxPoint x="695" y="400" />
              <mxPoint x="695" y="400" />
            </Array>
          </mxGeometry>
        </mxCell>
        <mxCell id="74rRM-MQZsqJR7cLCbWe-23" style="edgeStyle=orthogonalEdgeStyle;rounded=0;orthogonalLoop=1;jettySize=auto;html=1;entryX=0.5;entryY=0;entryDx=0;entryDy=0;" edge="1" parent="1" source="xtMuz63zyeB6EGfJgtIS-29" target="xtMuz63zyeB6EGfJgtIS-12">
          <mxGeometry relative="1" as="geometry">
            <Array as="points">
              <mxPoint x="865" y="380" />
              <mxPoint x="865" y="380" />
            </Array>
          </mxGeometry>
        </mxCell>
        <mxCell id="74rRM-MQZsqJR7cLCbWe-24" style="edgeStyle=orthogonalEdgeStyle;rounded=0;orthogonalLoop=1;jettySize=auto;html=1;entryX=0.5;entryY=0;entryDx=0;entryDy=0;" edge="1" parent="1" source="xtMuz63zyeB6EGfJgtIS-29" target="xtMuz63zyeB6EGfJgtIS-13">
          <mxGeometry relative="1" as="geometry">
            <Array as="points">
              <mxPoint x="1015" y="380" />
              <mxPoint x="1015" y="380" />
            </Array>
          </mxGeometry>
        </mxCell>
        <mxCell id="xtMuz63zyeB6EGfJgtIS-29" value="" style="line;strokeWidth=5;fillColor=none;align=left;verticalAlign=middle;spacingTop=-1;spacingLeft=3;spacingRight=3;rotatable=0;labelPosition=right;points=[];portConstraint=eastwest;strokeColor=inherit;" parent="1" vertex="1">
          <mxGeometry x="-150" y="370" width="1230" height="10" as="geometry" />
        </mxCell>
        <mxCell id="74rRM-MQZsqJR7cLCbWe-53" style="edgeStyle=orthogonalEdgeStyle;rounded=0;orthogonalLoop=1;jettySize=auto;html=1;" edge="1" parent="1" source="74rRM-MQZsqJR7cLCbWe-50">
          <mxGeometry relative="1" as="geometry">
            <mxPoint x="245" y="970" as="targetPoint" />
          </mxGeometry>
        </mxCell>
        <mxCell id="74rRM-MQZsqJR7cLCbWe-50" value="Log Out" style="rounded=1;whiteSpace=wrap;html=1;fontSize=16;fontStyle=1" vertex="1" parent="1">
          <mxGeometry x="180" y="870" width="130" height="40" as="geometry" />
        </mxCell>
        <mxCell id="74rRM-MQZsqJR7cLCbWe-55" style="edgeStyle=orthogonalEdgeStyle;rounded=0;orthogonalLoop=1;jettySize=auto;html=1;entryX=0.5;entryY=0;entryDx=0;entryDy=0;" edge="1" parent="1" source="74rRM-MQZsqJR7cLCbWe-54" target="xtMuz63zyeB6EGfJgtIS-3">
          <mxGeometry relative="1" as="geometry" />
        </mxCell>
        <mxCell id="74rRM-MQZsqJR7cLCbWe-54" value="" style="ellipse;shape=doubleEllipse;whiteSpace=wrap;html=1;aspect=fixed;fillColor=#1A1A1A;" vertex="1" parent="1">
          <mxGeometry x="577.5" y="30" width="25" height="25" as="geometry" />
        </mxCell>
        <mxCell id="74rRM-MQZsqJR7cLCbWe-56" value="" style="ellipse;html=1;shape=endState;fillColor=#000000;strokeColor=#ff0000;" vertex="1" parent="1">
          <mxGeometry x="230" y="970" width="30" height="30" as="geometry" />
        </mxCell>
      </root>
    </mxGraphModel>
  </diagram>
</mxfile>
